<?xml version="1.0" encoding="UTF-8"?>
<svg id="Calque_1" data-name="Calque 1" xmlns="http://www.w3.org/2000/svg" viewBox="0 0 2507.11 534.51">
  <defs>
    <style>
      .cls-1 {
        fill: #fff;
      }
    </style>
  </defs>
  <path class="cls-1" d="M2507.11,287.15h-29.88v243.38h29.88v-243.38ZM2440.63,354.22h-29.88v176.31h29.88v-176.31ZM2440.63,287.15h-29.88v34.37h29.88v-34.37ZM2324.72,530.53l66.74-176.31h-30.71l-39.18,107.58c-4.76,13.06-8.47,24.24-11.12,33.53-3.43-12.28-7.19-24.13-11.29-35.53l-37.85-105.59h-31.54l67.07,176.31h27.89ZM2103.61,530.53v-96.29c0-22.58,4.62-37.91,13.86-45.99,9.24-8.08,20.23-12.12,32.95-12.12,7.97,0,14.91,1.8,20.83,5.4,5.92,3.6,10.04,8.41,12.37,14.44,2.32,6.03,3.49,15.14,3.49,27.31v107.25h29.88v-108.41c0-13.83-.55-23.52-1.66-29.05-1.77-8.52-4.87-15.88-9.3-22.08-4.43-6.2-11.1-11.21-20-15.02-8.91-3.82-18.68-5.73-29.3-5.73-24.46,0-43.16,9.69-56.11,29.05v-25.07h-26.89v176.31h29.88ZM2005.86,453c0,13.17-1.61,23.13-4.82,29.88-4.21,8.74-10.79,15.63-19.76,20.67-8.96,5.04-19.2,7.55-30.71,7.55s-20.45-2.66-26.48-7.97c-6.03-5.31-9.05-11.95-9.05-19.92,0-5.2,1.38-9.93,4.15-14.19,2.77-4.26,6.69-7.5,11.79-9.71,5.09-2.21,13.78-4.21,26.06-5.98,21.69-3.1,37.96-6.86,48.81-11.29v10.96ZM2014.33,530.53h31.21c-3.76-6.75-6.28-13.81-7.55-21.17-1.27-7.36-1.91-24.93-1.91-52.71v-39.84c0-13.28-.5-22.47-1.49-27.56-1.77-8.19-4.87-14.97-9.3-20.34-4.43-5.37-11.35-9.82-20.75-13.36-9.41-3.54-21.64-5.31-36.69-5.31s-28.5,2.07-40.01,6.23c-11.51,4.15-20.31,10.07-26.4,17.76-6.09,7.69-10.46,17.79-13.11,30.3l29.22,3.99c3.21-12.51,8.16-21.22,14.86-26.15,6.69-4.92,17.07-7.39,31.13-7.39,15.05,0,26.4,3.38,34.03,10.13,5.64,4.98,8.47,13.56,8.47,25.73,0,1.11-.06,3.71-.17,7.8-11.4,3.98-29.17,7.42-53.29,10.29-11.84,1.44-20.7,2.93-26.56,4.48-7.97,2.22-15.14,5.48-21.5,9.8-6.37,4.32-11.51,10.04-15.44,17.18-3.93,7.14-5.89,15.02-5.89,23.66,0,14.72,5.2,26.81,15.61,36.27,10.4,9.46,25.29,14.19,44.66,14.19,11.73,0,22.71-1.94,32.95-5.81,10.24-3.87,20.89-10.51,31.96-19.92.88,8.3,2.88,15.55,5.98,21.75M1865.62,530.53v-28.72h-155.39l14.78-17.1,136.63-168.84v-28.72h-174.32v28.72h135.8c-7.97,8.19-16.38,17.82-25.23,28.89l-124.68,155.89v29.88h192.41ZM1548.03,287.15h-29.88v243.38h29.88v-243.38ZM1481.55,354.22h-29.88v176.31h29.88v-176.31ZM1481.55,287.15h-29.88v34.37h29.88v-34.37ZM1370.45,530.53v-92.3c0-12.62,1.66-24.24,4.98-34.86,2.21-6.97,5.92-12.42,11.12-16.35,5.2-3.93,11.07-5.89,17.6-5.89,7.3,0,14.61,2.16,21.91,6.48l10.29-27.73c-10.41-6.42-20.64-9.63-30.71-9.63-6.97,0-13.36,1.99-19.17,5.98-5.81,3.98-12.15,12.23-19.01,24.74v-26.73h-26.89v176.31h29.88ZM1197.63,388.59c9.35-9.19,20.89-13.78,34.61-13.78,15.16,0,27.5,5.76,37.02,17.27,6.2,7.42,9.96,18.54,11.29,33.37h-98.45c1-15.38,6.17-27.67,15.52-36.86M1261.79,501.31c-7.75,5.76-17.1,8.63-28.06,8.63-14.72,0-27.01-5.15-36.86-15.44-9.85-10.29-15.33-25.12-16.44-44.49h131.48c.11-3.54.17-6.2.17-7.97,0-29.11-7.47-51.69-22.41-67.74-14.94-16.05-34.2-24.07-57.77-24.07s-44.16,8.19-59.43,24.57c-15.27,16.38-22.91,39.4-22.91,69.06s7.55,50.94,22.66,66.82c15.11,15.88,35.55,23.82,61.34,23.82,20.47,0,37.3-4.98,50.47-14.94,13.17-9.96,22.19-23.96,27.06-42l-30.88-3.82c-4.54,12.62-10.68,21.81-18.43,27.56M982.82,315.87h62.26c14.61,0,24.62.72,30.05,2.16,8.41,2.32,15.19,7.11,20.34,14.36,5.15,7.25,7.72,15.97,7.72,26.15,0,14.06-4.37,24.96-13.11,32.71-8.74,7.75-23.52,11.62-44.33,11.62h-62.92v-86.99ZM982.82,530.53v-98.94h62.42c34.42,0,58.21-7.17,71.39-21.5,13.17-14.33,19.76-31.85,19.76-52.54,0-12.06-2.46-23.13-7.39-33.2-4.93-10.07-11.43-17.9-19.51-23.49-8.08-5.59-18.1-9.38-30.05-11.37-8.52-1.55-20.86-2.32-37.02-2.32h-91.81v243.38h32.21ZM229.72,388.59c9.35-9.19,20.89-13.78,34.61-13.78,15.16,0,27.5,5.76,37.02,17.27,6.2,7.42,9.96,18.54,11.29,33.37h-98.45c1-15.38,6.17-27.67,15.52-36.86M293.89,501.31c-7.75,5.76-17.1,8.63-28.06,8.63-14.72,0-27.01-5.15-36.86-15.44-9.85-10.29-15.33-25.12-16.44-44.49h131.49c.11-3.54.17-6.2.17-7.97,0-29.11-7.47-51.69-22.41-67.74-14.94-16.05-34.2-24.07-57.77-24.07s-44.16,8.19-59.43,24.57c-15.27,16.38-22.91,39.4-22.91,69.06s7.55,50.94,22.66,66.82c15.11,15.88,35.55,23.82,61.34,23.82,20.48,0,37.3-4.98,50.47-14.94,13.17-9.96,22.19-23.96,27.06-42l-30.88-3.82c-4.54,12.62-10.68,21.81-18.43,27.56M44.08,391.24c8.91-10.85,20-16.27,33.29-16.27s25.07,5.65,34.37,16.93c9.3,11.29,13.94,29,13.94,53.13,0,21.91-4.57,38.21-13.7,48.89-9.13,10.68-20.23,16.02-33.29,16.02s-24.18-5.59-33.7-16.77c-9.52-11.18-14.28-28.06-14.28-50.63s4.45-40.45,13.37-51.3M152.9,530.53v-243.38h-29.72v87.32c-5.2-7.19-11.95-13.03-20.25-17.51-8.3-4.48-17.76-6.72-28.39-6.72-14.5,0-27.62,3.82-39.35,11.46-11.73,7.64-20.53,18.62-26.4,32.95-5.87,14.34-8.8,30.3-8.8,47.9s3.24,34.01,9.71,47.89c6.47,13.89,15.61,24.71,27.39,32.46,11.79,7.75,24.71,11.62,38.76,11.62,21.69,0,38.13-8.74,49.31-26.23v22.25h27.72Z"/>
  <path class="cls-1" d="M1866.53,237.24c12.01,9.52,29.47,14.28,52.38,14.28,13.83,0,26.23-2.41,37.19-7.22,10.96-4.82,19.34-11.62,25.15-20.42,5.81-8.8,8.72-18.18,8.72-28.14s-2.38-18.7-7.14-25.57c-4.76-6.86-11.32-12.09-19.67-15.69-8.36-3.6-23.11-8.22-44.24-13.86-14.61-3.98-23.41-6.53-26.4-7.64-5.2-2.1-9.02-4.76-11.46-7.97-2.43-3.1-3.65-6.58-3.65-10.46,0-6.09,2.93-11.4,8.8-15.94,5.86-4.54,15.66-6.81,29.38-6.81,11.62,0,20.61,2.55,26.98,7.64,6.36,5.09,10.21,12.18,11.54,21.25l29.22-3.98c-1.88-11.4-5.31-20.5-10.29-27.31-4.98-6.81-12.7-12.2-23.16-16.19-10.46-3.98-22.61-5.98-36.44-5.98-9.19,0-17.79,1.19-25.82,3.57-8.03,2.38-14.36,5.29-19.01,8.71-6.2,4.43-11.1,9.99-14.69,16.68-3.6,6.7-5.4,13.97-5.4,21.83,0,8.63,2.18,16.52,6.56,23.66,4.37,7.14,10.79,12.73,19.26,16.77,8.47,4.04,23.66,8.83,45.57,14.36,16.27,4.1,26.45,7.47,30.55,10.13,5.86,3.88,8.8,9.19,8.8,15.94,0,7.53-3.32,14.08-9.96,19.67-6.64,5.59-16.82,8.38-30.55,8.38s-24.21-3.15-31.79-9.46c-7.58-6.31-12.2-15.38-13.86-27.23l-29.55,4.65c3.32,18.71,10.98,32.82,22.99,42.33M1711.23,105.59c9.35-9.18,20.89-13.78,34.61-13.78,15.16,0,27.5,5.76,37.02,17.27,6.2,7.42,9.96,18.54,11.29,33.37h-98.45c1-15.38,6.17-27.67,15.52-36.86M1775.39,218.31c-7.75,5.76-17.1,8.63-28.06,8.63-14.72,0-27.01-5.15-36.86-15.44-9.85-10.29-15.33-25.12-16.44-44.49h131.48c.11-3.54.17-6.2.17-7.97,0-29.11-7.47-51.68-22.41-67.73-14.94-16.05-34.2-24.07-57.77-24.07s-44.16,8.19-59.43,24.57c-15.27,16.38-22.91,39.4-22.91,69.06s7.55,50.94,22.66,66.82c15.11,15.88,35.55,23.82,61.34,23.82,20.47,0,37.3-4.98,50.47-14.94,13.17-9.96,22.19-23.96,27.06-42l-30.88-3.82c-4.54,12.62-10.68,21.81-18.43,27.56M1605.45,216.15c-7.86,7.2-17.66,10.79-29.39,10.79-14.61,0-26.45-5.37-35.53-16.1-9.08-10.73-13.61-27.95-13.61-51.63s4.7-40.42,14.11-51.22c9.41-10.79,21.64-16.19,36.69-16.19,9.96,0,18.45,2.99,25.48,8.96,7.03,5.98,11.93,14.89,14.69,26.73l29.05-4.48c-3.43-17.82-11.23-31.57-23.41-41.25-12.18-9.68-27.84-14.53-46.98-14.53-15.16,0-29.19,3.57-42.08,10.71-12.9,7.14-22.49,17.85-28.8,32.12-6.31,14.28-9.46,30.94-9.46,49.97,0,29.44,7.33,52.05,22,67.82,14.66,15.77,34.06,23.66,58.19,23.66,19.26,0,35.5-5.73,48.73-17.18,13.22-11.45,21.44-27.31,24.65-47.56l-29.39-3.82c-2.1,14.94-7.08,26.01-14.94,33.2M1438.6,170c0,13.17-1.61,23.13-4.81,29.88-4.21,8.74-10.79,15.63-19.76,20.67-8.96,5.04-19.2,7.55-30.71,7.55s-20.45-2.66-26.48-7.97c-6.03-5.31-9.05-11.95-9.05-19.92,0-5.2,1.38-9.93,4.15-14.2,2.77-4.26,6.69-7.5,11.79-9.71,5.09-2.21,13.78-4.2,26.06-5.98,21.69-3.1,37.96-6.86,48.81-11.29v10.96ZM1447.06,247.53h31.21c-3.76-6.75-6.28-13.8-7.55-21.17-1.27-7.36-1.91-24.93-1.91-52.71v-39.84c0-13.28-.5-22.47-1.49-27.56-1.77-8.19-4.87-14.97-9.3-20.34-4.43-5.37-11.35-9.82-20.75-13.36-9.41-3.54-21.64-5.31-36.69-5.31s-28.5,2.08-40.01,6.23c-11.51,4.15-20.31,10.07-26.4,17.76-6.09,7.69-10.46,17.79-13.11,30.3l29.22,3.99c3.21-12.51,8.16-21.22,14.86-26.15,6.69-4.92,17.07-7.39,31.13-7.39,15.05,0,26.4,3.38,34.03,10.13,5.65,4.98,8.47,13.56,8.47,25.73,0,1.11-.06,3.71-.17,7.8-11.4,3.98-29.16,7.42-53.29,10.29-11.84,1.44-20.7,2.93-26.56,4.48-7.97,2.21-15.14,5.48-21.5,9.79-6.37,4.32-11.51,10.04-15.44,17.18-3.93,7.14-5.89,15.02-5.89,23.66,0,14.72,5.2,26.81,15.6,36.27,10.4,9.46,25.29,14.2,44.66,14.2,11.73,0,22.72-1.94,32.95-5.81,10.24-3.87,20.89-10.51,31.96-19.92.89,8.3,2.88,15.55,5.98,21.75M1249.24,247.53v-92.3c0-12.62,1.66-24.24,4.98-34.86,2.21-6.97,5.92-12.42,11.12-16.35,5.2-3.93,11.07-5.89,17.6-5.89,7.3,0,14.61,2.16,21.91,6.48l10.29-27.73c-10.4-6.42-20.64-9.63-30.71-9.63-6.97,0-13.36,1.99-19.17,5.98-5.81,3.98-12.15,12.23-19.01,24.74v-26.73h-26.89v176.31h29.88ZM1183.47,221.96c-4.43,0-7.83-.72-10.21-2.16-2.38-1.44-4.1-3.38-5.15-5.81-1.05-2.43-1.58-7.91-1.58-16.43v-103.1h30.05v-23.24h-30.05V9.63l-29.72,17.93v43.66h-21.91v23.24h21.91v101.43c0,17.93,1.22,29.69,3.65,35.28,2.43,5.59,6.64,10.1,12.62,13.53,5.98,3.43,14.39,5.15,25.23,5.15,6.64,0,14.17-.89,22.58-2.66l-4.32-26.4c-5.42.77-9.79,1.16-13.11,1.16M877.92,237.24c12.01,9.52,29.47,14.28,52.38,14.28,13.83,0,26.23-2.41,37.19-7.22,10.96-4.82,19.34-11.62,25.15-20.42,5.81-8.8,8.72-18.18,8.72-28.14s-2.38-18.7-7.14-25.57c-4.76-6.86-11.32-12.09-19.67-15.69-8.36-3.6-23.1-8.22-44.24-13.86-14.61-3.98-23.41-6.53-26.4-7.64-5.2-2.1-9.02-4.76-11.46-7.97-2.43-3.1-3.65-6.58-3.65-10.46,0-6.09,2.93-11.4,8.8-15.94,5.86-4.54,15.66-6.81,29.39-6.81,11.62,0,20.61,2.55,26.98,7.64,6.36,5.09,10.21,12.18,11.54,21.25l29.22-3.98c-1.88-11.4-5.31-20.5-10.29-27.31-4.98-6.81-12.7-12.2-23.16-16.19-10.46-3.98-22.61-5.98-36.44-5.98-9.19,0-17.79,1.19-25.82,3.57-8.03,2.38-14.36,5.29-19.01,8.71-6.2,4.43-11.1,9.99-14.69,16.68-3.6,6.7-5.4,13.97-5.4,21.83,0,8.63,2.18,16.52,6.56,23.66,4.37,7.14,10.79,12.73,19.26,16.77,8.47,4.04,23.66,8.83,45.57,14.36,16.27,4.1,26.45,7.47,30.55,10.13,5.86,3.88,8.8,9.19,8.8,15.94,0,7.53-3.32,14.08-9.96,19.67-6.64,5.59-16.83,8.38-30.55,8.38s-24.21-3.15-31.79-9.46c-7.58-6.31-12.2-15.38-13.86-27.23l-29.55,4.65c3.32,18.71,10.98,32.82,22.99,42.33M722.62,105.59c9.35-9.18,20.89-13.78,34.61-13.78,15.16,0,27.5,5.76,37.02,17.27,6.2,7.42,9.96,18.54,11.29,33.37h-98.45c1-15.38,6.17-27.67,15.52-36.86M786.78,218.31c-7.75,5.76-17.1,8.63-28.06,8.63-14.72,0-27.01-5.15-36.85-15.44-9.85-10.29-15.33-25.12-16.44-44.49h131.49c.11-3.54.17-6.2.17-7.97,0-29.11-7.47-51.68-22.41-67.73-14.94-16.05-34.2-24.07-57.77-24.07s-44.16,8.19-59.43,24.57c-15.27,16.38-22.91,39.4-22.91,69.06s7.55,50.94,22.66,66.82c15.11,15.88,35.55,23.82,61.34,23.82,20.48,0,37.3-4.98,50.47-14.94,13.17-9.96,22.19-23.96,27.06-42l-30.88-3.82c-4.54,12.62-10.68,21.81-18.43,27.56M645.75,4.15h-29.88v243.38h29.88V4.15ZM438.39,247.53v-92.3c0-12.62,1.66-24.24,4.98-34.86,2.21-6.97,5.92-12.42,11.12-16.35,5.2-3.93,11.07-5.89,17.6-5.89,7.3,0,14.61,2.16,21.91,6.48l10.29-27.73c-10.4-6.42-20.64-9.63-30.71-9.63-6.97,0-13.36,1.99-19.18,5.98-5.81,3.98-12.15,12.23-19.01,24.74v-26.73h-26.89v176.31h29.88ZM371.14,247.53V71.22h-29.88v94.46c0,15.05-1.63,26.54-4.9,34.45-3.27,7.91-8.83,14.17-16.68,18.76-7.86,4.59-16.27,6.89-25.23,6.89s-16.49-2.24-22.58-6.72c-6.09-4.48-10.07-10.65-11.95-18.51-1.22-5.42-1.83-15.94-1.83-31.54v-97.78h-29.88v109.24c0,12.73.61,22.03,1.83,27.89,1.77,8.74,4.84,16.13,9.21,22.16,4.37,6.03,11.07,11.04,20.09,15.02,9.02,3.98,18.73,5.98,29.14,5.98,23.58,0,42.22-9.96,55.95-29.88v25.9h26.73ZM17.02,213.08c8.47,12.89,20.14,22.55,35.03,28.97,14.89,6.42,33.34,9.63,55.37,9.63,17.37,0,33.01-3.18,46.9-9.55,13.89-6.36,24.54-15.27,31.96-26.73,7.41-11.46,11.12-23.66,11.12-36.61s-3.38-24.6-10.13-34.61c-6.75-10.02-17.21-18.29-31.38-24.82-9.74-4.42-27.7-9.6-53.87-15.52-26.18-5.92-42.36-11.7-48.56-17.35-6.31-5.64-9.46-12.84-9.46-21.58,0-10.07,4.45-18.68,13.36-25.81,8.91-7.14,23.1-10.71,42.58-10.71s32.84,3.93,42.42,11.79c9.57,7.86,15.19,19.48,16.85,34.86l30.88-2.32c-.55-14.28-4.54-27.06-11.95-38.35-7.42-11.29-18.01-19.84-31.79-25.65C132.56,2.9,116.65,0,98.61,0c-16.38,0-31.27,2.77-44.66,8.3-13.39,5.53-23.57,13.64-30.55,24.32-6.97,10.68-10.46,22.16-10.46,34.45,0,11.18,2.85,21.28,8.55,30.3,5.7,9.02,14.36,16.58,25.98,22.66,8.97,4.76,24.62,9.82,46.98,15.19,22.36,5.37,36.8,9.32,43.33,11.87,10.18,3.88,17.49,8.66,21.91,14.36,4.43,5.7,6.64,12.37,6.64,20.01s-2.3,14.47-6.89,20.84c-4.59,6.37-11.6,11.37-21,15.02-9.41,3.65-20.25,5.48-32.54,5.48-13.84,0-26.29-2.41-37.35-7.22-11.07-4.81-19.23-11.12-24.49-18.93-5.26-7.8-8.61-17.79-10.04-29.96l-30.38,2.66c.44,16.27,4.9,30.85,13.36,43.74"/>
</svg>