<?xml version="1.0" encoding="UTF-8"?>
<svg id="Calque_1" data-name="Calque 1" xmlns="http://www.w3.org/2000/svg" viewBox="0 0 2505.21 534.52">
  <defs>
    <style>
      .cls-1 {
        fill: #fff;
      }
    </style>
  </defs>
  <path class="cls-1" d="M229.73,388.59c9.35-9.19,20.89-13.78,34.61-13.78,15.16,0,27.5,5.76,37.02,17.27,6.2,7.42,9.96,18.54,11.29,33.37h-98.45c1-15.38,6.17-27.67,15.52-36.86M293.9,501.31c-7.75,5.76-17.1,8.63-28.06,8.63-14.72,0-27.01-5.15-36.86-15.44s-15.33-25.12-16.44-44.49h131.49c.11-3.54.17-6.2.17-7.97,0-29.11-7.47-51.69-22.41-67.74s-34.2-24.07-57.77-24.07-44.16,8.19-59.43,24.57c-15.27,16.38-22.91,39.4-22.91,69.06s7.55,50.94,22.66,66.82c15.11,15.88,35.55,23.82,61.34,23.82,20.48,0,37.3-4.98,50.47-14.94,13.17-9.96,22.19-23.96,27.06-42l-30.88-3.82c-4.54,12.62-10.68,21.81-18.43,27.56M44.09,391.24c8.91-10.85,20-16.27,33.29-16.27s25.07,5.65,34.37,16.93c9.3,11.29,13.94,29,13.94,53.13,0,21.91-4.57,38.21-13.7,48.89s-20.23,16.02-33.29,16.02-24.18-5.59-33.7-16.77-14.28-28.06-14.28-50.63,4.45-40.45,13.37-51.3M152.91,530.53v-243.38h-29.72v87.32c-5.2-7.19-11.95-13.03-20.25-17.51s-17.76-6.72-28.39-6.72c-14.5,0-27.62,3.82-39.35,11.46-11.73,7.64-20.53,18.62-26.4,32.95-5.87,14.34-8.8,30.3-8.8,47.9s3.24,34.01,9.71,47.89c6.47,13.89,15.61,24.71,27.39,32.46,11.79,7.75,24.71,11.62,38.76,11.62,21.69,0,38.13-8.74,49.31-26.23v22.25h27.74Z"/>
  <path class="cls-1" d="M1866.54,237.24c12.01,9.52,29.47,14.28,52.38,14.28,13.83,0,26.23-2.41,37.19-7.22,10.96-4.82,19.34-11.62,25.15-20.42s8.72-18.18,8.72-28.14-2.38-18.7-7.14-25.57c-4.76-6.86-11.32-12.09-19.67-15.69-8.36-3.6-23.11-8.22-44.24-13.86-14.61-3.98-23.41-6.53-26.4-7.64-5.2-2.1-9.02-4.76-11.46-7.97-2.43-3.1-3.65-6.58-3.65-10.46,0-6.09,2.93-11.4,8.8-15.94,5.86-4.54,15.66-6.81,29.38-6.81,11.62,0,20.61,2.55,26.98,7.64,6.36,5.09,10.21,12.18,11.54,21.25l29.22-3.98c-1.88-11.4-5.31-20.5-10.29-27.31s-12.7-12.2-23.16-16.19c-10.46-3.98-22.61-5.98-36.44-5.98-9.19,0-17.79,1.19-25.82,3.57-8.03,2.38-14.36,5.29-19.01,8.71-6.2,4.43-11.1,9.99-14.69,16.68-3.6,6.7-5.4,13.97-5.4,21.83,0,8.63,2.18,16.52,6.56,23.66,4.37,7.14,10.79,12.73,19.26,16.77,8.47,4.04,23.66,8.83,45.57,14.36,16.27,4.1,26.45,7.47,30.55,10.13,5.86,3.88,8.8,9.19,8.8,15.94,0,7.53-3.32,14.08-9.96,19.67s-16.82,8.38-30.55,8.38-24.21-3.15-31.79-9.46c-7.58-6.31-12.2-15.38-13.86-27.23l-29.55,4.65c3.32,18.71,10.98,32.82,22.99,42.33M1711.24,105.59c9.35-9.18,20.89-13.78,34.61-13.78,15.16,0,27.5,5.76,37.02,17.27,6.2,7.42,9.96,18.54,11.29,33.37h-98.45c1-15.38,6.17-27.67,15.52-36.86M1775.4,218.31c-7.75,5.76-17.1,8.63-28.06,8.63-14.72,0-27.01-5.15-36.86-15.44-9.85-10.29-15.33-25.12-16.44-44.49h131.48c.11-3.54.17-6.2.17-7.97,0-29.11-7.47-51.68-22.41-67.73-14.94-16.05-34.2-24.07-57.77-24.07s-44.16,8.19-59.43,24.57-22.91,39.4-22.91,69.06,7.55,50.94,22.66,66.82,35.55,23.82,61.34,23.82c20.47,0,37.3-4.98,50.47-14.94,13.17-9.96,22.19-23.96,27.06-42l-30.88-3.82c-4.54,12.62-10.68,21.81-18.43,27.56M1605.46,216.15c-7.86,7.2-17.66,10.79-29.39,10.79-14.61,0-26.45-5.37-35.53-16.1-9.08-10.73-13.61-27.95-13.61-51.63s4.7-40.42,14.11-51.22c9.41-10.79,21.64-16.19,36.69-16.19,9.96,0,18.45,2.99,25.48,8.96,7.03,5.98,11.93,14.89,14.69,26.73l29.05-4.48c-3.43-17.82-11.23-31.57-23.41-41.25s-27.84-14.53-46.98-14.53c-15.16,0-29.19,3.57-42.08,10.71-12.9,7.14-22.49,17.85-28.8,32.12-6.31,14.28-9.46,30.94-9.46,49.97,0,29.44,7.33,52.05,22,67.82,14.66,15.77,34.06,23.66,58.19,23.66,19.26,0,35.5-5.73,48.73-17.18,13.22-11.45,21.44-27.31,24.65-47.56l-29.39-3.82c-2.1,14.94-7.08,26.01-14.94,33.2M1438.61,170c0,13.17-1.61,23.13-4.81,29.88-4.21,8.74-10.79,15.63-19.76,20.67-8.96,5.04-19.2,7.55-30.71,7.55s-20.45-2.66-26.48-7.97-9.05-11.95-9.05-19.92c0-5.2,1.38-9.93,4.15-14.2,2.77-4.26,6.69-7.5,11.79-9.71,5.09-2.21,13.78-4.2,26.06-5.98,21.69-3.1,37.96-6.86,48.81-11.29v10.96h0ZM1447.07,247.53h31.21c-3.76-6.75-6.28-13.8-7.55-21.17-1.27-7.36-1.91-24.93-1.91-52.71v-39.84c0-13.28-.5-22.47-1.49-27.56-1.77-8.19-4.87-14.97-9.3-20.34-4.43-5.37-11.35-9.82-20.75-13.36-9.41-3.54-21.64-5.31-36.69-5.31s-28.5,2.08-40.01,6.23-20.31,10.07-26.4,17.76-10.46,17.79-13.11,30.3l29.22,3.99c3.21-12.51,8.16-21.22,14.86-26.15,6.69-4.92,17.07-7.39,31.13-7.39,15.05,0,26.4,3.38,34.03,10.13,5.65,4.98,8.47,13.56,8.47,25.73,0,1.11-.06,3.71-.17,7.8-11.4,3.98-29.16,7.42-53.29,10.29-11.84,1.44-20.7,2.93-26.56,4.48-7.97,2.21-15.14,5.48-21.5,9.79-6.37,4.32-11.51,10.04-15.44,17.18-3.93,7.14-5.89,15.02-5.89,23.66,0,14.72,5.2,26.81,15.6,36.27s25.29,14.2,44.66,14.2c11.73,0,22.72-1.94,32.95-5.81,10.24-3.87,20.89-10.51,31.96-19.92.89,8.3,2.88,15.55,5.98,21.75M1249.25,247.53v-92.3c0-12.62,1.66-24.24,4.98-34.86,2.21-6.97,5.92-12.42,11.12-16.35s11.07-5.89,17.6-5.89c7.3,0,14.61,2.16,21.91,6.48l10.29-27.73c-10.4-6.42-20.64-9.63-30.71-9.63-6.97,0-13.36,1.99-19.17,5.98-5.81,3.98-12.15,12.23-19.01,24.74v-26.73h-26.89v176.31h29.88v-.02ZM1183.48,221.96c-4.43,0-7.83-.72-10.21-2.16s-4.1-3.38-5.15-5.81-1.58-7.91-1.58-16.43v-103.1h30.05v-23.24h-30.05V9.63l-29.72,17.93v43.66h-21.91v23.24h21.91v101.43c0,17.93,1.22,29.69,3.65,35.28s6.64,10.1,12.62,13.53,14.39,5.15,25.23,5.15c6.64,0,14.17-.89,22.58-2.66l-4.32-26.4c-5.42.77-9.79,1.16-13.11,1.16M877.93,237.24c12.01,9.52,29.47,14.28,52.38,14.28,13.83,0,26.23-2.41,37.19-7.22,10.96-4.82,19.34-11.62,25.15-20.42s8.72-18.18,8.72-28.14-2.38-18.7-7.14-25.57c-4.76-6.86-11.32-12.09-19.67-15.69-8.36-3.6-23.1-8.22-44.24-13.86-14.61-3.98-23.41-6.53-26.4-7.64-5.2-2.1-9.02-4.76-11.46-7.97-2.43-3.1-3.65-6.58-3.65-10.46,0-6.09,2.93-11.4,8.8-15.94,5.86-4.54,15.66-6.81,29.39-6.81,11.62,0,20.61,2.55,26.98,7.64,6.36,5.09,10.21,12.18,11.54,21.25l29.22-3.98c-1.88-11.4-5.31-20.5-10.29-27.31s-12.7-12.2-23.16-16.19c-10.46-3.98-22.61-5.98-36.44-5.98-9.19,0-17.79,1.19-25.82,3.57s-14.36,5.29-19.01,8.71c-6.2,4.43-11.1,9.99-14.69,16.68-3.6,6.7-5.4,13.97-5.4,21.83,0,8.63,2.18,16.52,6.56,23.66,4.37,7.14,10.79,12.73,19.26,16.77,8.47,4.04,23.66,8.83,45.57,14.36,16.27,4.1,26.45,7.47,30.55,10.13,5.86,3.88,8.8,9.19,8.8,15.94,0,7.53-3.32,14.08-9.96,19.67s-16.83,8.38-30.55,8.38-24.21-3.15-31.79-9.46c-7.58-6.31-12.2-15.38-13.86-27.23l-29.55,4.65c3.32,18.71,10.98,32.82,22.99,42.33M722.63,105.59c9.35-9.18,20.89-13.78,34.61-13.78,15.16,0,27.5,5.76,37.02,17.27,6.2,7.42,9.96,18.54,11.29,33.37h-98.45c1-15.38,6.17-27.67,15.52-36.86M786.79,218.31c-7.75,5.76-17.1,8.63-28.06,8.63-14.72,0-27.01-5.15-36.85-15.44-9.85-10.29-15.33-25.12-16.44-44.49h131.49c.11-3.54.17-6.2.17-7.97,0-29.11-7.47-51.68-22.41-67.73-14.94-16.05-34.2-24.07-57.77-24.07s-44.16,8.19-59.43,24.57-22.91,39.4-22.91,69.06,7.55,50.94,22.66,66.82,35.55,23.82,61.34,23.82c20.48,0,37.3-4.98,50.47-14.94s22.19-23.96,27.06-42l-30.88-3.82c-4.54,12.62-10.68,21.81-18.43,27.56M645.76,4.15h-29.88v243.38h29.88V4.15ZM438.4,247.53v-92.3c0-12.62,1.66-24.24,4.98-34.86,2.21-6.97,5.92-12.42,11.12-16.35,5.2-3.93,11.07-5.89,17.6-5.89,7.3,0,14.61,2.16,21.91,6.48l10.29-27.73c-10.4-6.42-20.64-9.63-30.71-9.63-6.97,0-13.36,1.99-19.18,5.98-5.81,3.98-12.15,12.23-19.01,24.74v-26.73h-26.89v176.31h29.88v-.02ZM371.15,247.53V71.22h-29.88v94.46c0,15.05-1.63,26.54-4.9,34.45-3.27,7.91-8.83,14.17-16.68,18.76-7.86,4.59-16.27,6.89-25.23,6.89s-16.49-2.24-22.58-6.72-10.07-10.65-11.95-18.51c-1.22-5.42-1.83-15.94-1.83-31.54v-97.78h-29.88v109.24c0,12.73.61,22.03,1.83,27.89,1.77,8.74,4.84,16.13,9.21,22.16,4.37,6.03,11.07,11.04,20.09,15.02,9.02,3.98,18.73,5.98,29.14,5.98,23.58,0,42.22-9.96,55.95-29.88v25.9h26.73-.02ZM17.03,213.08c8.47,12.89,20.14,22.55,35.03,28.97,14.89,6.42,33.34,9.63,55.37,9.63,17.37,0,33.01-3.18,46.9-9.55,13.89-6.36,24.54-15.27,31.96-26.73,7.41-11.46,11.12-23.66,11.12-36.61s-3.38-24.6-10.13-34.61c-6.75-10.02-17.21-18.29-31.38-24.82-9.74-4.42-27.7-9.6-53.87-15.52-26.18-5.92-42.36-11.7-48.56-17.35-6.31-5.64-9.46-12.84-9.46-21.58,0-10.07,4.45-18.68,13.36-25.81,8.91-7.14,23.1-10.71,42.58-10.71s32.84,3.93,42.42,11.79c9.57,7.86,15.19,19.48,16.85,34.86l30.88-2.32c-.55-14.28-4.54-27.06-11.95-38.35-7.42-11.29-18.01-19.84-31.79-25.65C132.57,2.9,116.66,0,98.62,0c-16.38,0-31.27,2.77-44.66,8.3-13.39,5.53-23.57,13.64-30.55,24.32-6.97,10.68-10.46,22.16-10.46,34.45,0,11.18,2.85,21.28,8.55,30.3,5.7,9.02,14.36,16.58,25.98,22.66,8.97,4.76,24.62,9.82,46.98,15.19,22.36,5.37,36.8,9.32,43.33,11.87,10.18,3.88,17.49,8.66,21.91,14.36,4.43,5.7,6.64,12.37,6.64,20.01s-2.3,14.47-6.89,20.84-11.6,11.37-21,15.02c-9.41,3.65-20.25,5.48-32.54,5.48-13.84,0-26.29-2.41-37.35-7.22-11.07-4.81-19.23-11.12-24.49-18.93-5.26-7.8-8.61-17.79-10.04-29.96l-30.38,2.66c.44,16.27,4.9,30.85,13.36,43.74"/>
  <g>
    <path class="cls-1" d="M1174.35,406.35c-4.46-4.5-3.42-11.82-11.22-12.38-6.74-.49-12.24,2.35-16.4,5.98-9.64,8.45-19.03,17.41-25.68,28.68-3.06,5.18-2.81,15.39.97,18.58,4.9,4.13,10.11,4.09,15.13-.02,2.11-1.73,5.31-.74,7.21-3.53,1.89-2.79,4.77-4.9,7.16-7.37,1.96-2.02,5.58-4.28,5.41-6.17-.49-5.73,4.79-3.61,6.41-5.81,1.85-2.52,3.81-5.53,4.11-8.5.49-4.8,4.84-6,6.91-9.45M1365.13,348.5c3.76.94,5.79,1,6.95-1.69,1.68-3.91,2.58-8.78,5.46-11.45,10.8-9.98,15.17-23.69,22.26-35.82,9.21-15.77,16.52-32.18,21.24-50.02,1.89-7.17,3.19-13.98,2.89-21.14-.22-5.07-6.54-9.44-10.95-7.21-4.26,2.15-8.75,4.03-12.5,7.55-19.82,18.56-25.86,30.74-32.01,66.87-6.61,8.05-2.52,17.5-3.18,26.27-.67,8.98-.15,18.06-.15,26.64M1368.94,361.63c4.45,4.45,9.74,7.88,12.32,12.75,3.95,7.42,12.81,3.91,17.1,9.42,5.47-2.11,10.99-4.12,16.41-6.36,15.12-6.28,24.64-20.22,38.4-28.44,1.94-1.16,2.78-4.42,3.79-6.84,2.39-5.77,5.81-10.63,11.64-14.02,7.44,2.07,8.07,9.33,10.86,14.92,6.3,12.62,11.53,14.27,25.51,10.3,7.77-2.2,15.28-4.94,22.91-7.38,4.71-1.51,10.3-.28,15.49-.28,5.18-9.37,10.76-18.59,16.3-27.67,3.78-6.19,12.43-9.44,19.02-13.83.72-.49,2.52-.3,3.23.28,6.92,5.7,16.04,5.67,23.87,9.36,16.35,7.72,33.55,13.74,50.63,19.82,11.56,4.12,23.8.64,35.69,1.63,5.35-7.26,14.57-6.79,21.47-10.81,19.97-11.64,41-21.36,60.47-33.94,4.69-3.03,7.21-8.31,12.66-10.15,2.49,2.96,1.12,5.3-1.41,7.13-9.3,6.74-18.53,13.61-28.08,20-19.67,13.17-41.17,22.98-62.73,32.45-10.22,4.49-21.13,10.37-32.76,2.72-.82-.54-2.18-.55-3.25-.43-19.16,2.16-34.41-8.45-50.71-15.57-7.83-3.41-15.59-6.96-23.45-10.25-6.84-2.86-10.95-1.99-14.37,3.05-7.88,11.61-17.01,22.5-22.57,36.59-7.53,0-15.51.12-23.49-.04-4.56-.1-8.48.61-12.54,3.31-4.5,2.98-9.84,4.52-15.77,3.81-5.69-.68-11.71.77-17.24-.39-6.05-1.27-5.27-9.34-9.93-12.72-1.63-1.18-2.4-3.53-3.79-5.71-13.66,20.7-32.83,31.81-50.64,44.57-3.35,2.39-6.57.93-9.66,1.89-17.42,5.4-30.25-2.01-41.44-14.4-1.1-1.2-2.49-2.15-3.68-3.16-5.44.67-7.46,5.35-10.72,8.28-5.77,5.16-12.05,9.15-18.69,13.22-14.73,9-27.67,8.04-41.12-.9-4.63,2.64-3.69,9.96-9.48,10.62-2.66.3-4.02,1.77-5.59,3.32-14.14,14-16.36,14.29-35.14,3.94-4.45,4.45-8.59,9.91-13.96,13.58-4.97,3.4-8.42,7.56-12.02,12.15-6.47,8.26-15.82,9.73-25.91,8.52-5.36-5.89-13.61-10.18-12.93-21.18-6.84,2.05-9.91,6.22-13.31,11.73-3.98,6.44-10.59,11.35-16.41,16.51-4.51,3.99-11.9,1.92-16.13,6.99-1.86-5.81-6.39,1.06-8.48-1.69-2.09-2.76-7.63-.53-7.84-7.04-.11-3.09-4.61-6.11,0-9.6.02-17.32,12.36-28.53,20.88-41.54,6.86-10.47,18.79-12.56,29.57-16.24,2.07-.7,5.64-1.08,6.71.06,5.55,5.94,13.1,1.5,19.72,4.3.61,8.39-4.45,15.72-3.9,24.33.44,6.84,3.39,12.75,3.97,19.31.62,7.12,9.08,2.45,9.91,8.07,7.86-4.27,11.93-10.62,17.75-15.1,5.16-3.98,9.39-10.24,14.23-15.54-1.69-6.54,1.96-13.51-2.86-19.89-1.14-1.51,2.99-4.8,2.73-8.48-.31-4.43,3.03-7.94,7.34-7.27,3.75.57,6.67,3.82,6.36,8.61-.23,3.45-.35,6.95,0,10.38,1.13,10.88,6,15.08,17.36,15.37,1.71.04,3.45,0,5.1,0,3.74-3.74,8.26-6.89,10.87-11.21,3.29-5.49,7.91-12.57,4.04-18.42-7.85-11.89,1.67-17.95,5.23-26.59,4.84,2.08,8.27,3.55,11.77,5.05.31.91.94,1.92.95,2.93.08,7.5-.14,15.02.11,22.51.17,5.18,3.18,7.89,8.42,8.45,13.06,1.38,24.2-1.55,33.24-12.01,4.65-5.38,8.98-11.82,18.08-13.9-5.69-7.33-5.22-16.27-7.33-24.49-2.23-8.67-1.84-18.6-.19-27.53,2.44-13.14,6.25-26.17,10.92-38.7,4.1-11,8.92-21.66,16.07-31.56,7.46-10.34,17.17-18.07,25.44-27.36,2.01-2.26,5.52-4.35,8.39-4.41,5.92-.11,13.85-3.09,16.94,3.96,1.7,3.87,9.73,8.23,2.39,14.08,4.97,16.18-4.28,29.4-8.91,43.64-3.86,11.82-10.12,22.49-16.24,33.07-5.94,10.28-12.37,20.44-18.75,30.5-5.64,8.9-12.87,16.21-18.89,25.57"/>
    <path class="cls-1" d="M1073.95,286.58c-1.49-8.32,7.2-14.99,2.16-24.15-12.99-.42-18.62,12.28-31.05,15.79,10.59,3.62,18.2,9.41,28.89,8.35M1170.92,303.03c-.29-5.19,1.1-9.66-2.92-14.55-13.47-16.37-32.62-23.63-50.67-32.34-5.6-2.7-13.71-1.34-20.44-.32-8.48,1.27-12.24,7.21-12.41,16.66-.03,1.73,0,3.45,0,5.18.06,13.67,1.17,15.2,14.91,19.5,9.73,3.04,19.44,6,29.44,8.27,14.47,3.28,28.33,3.91,42.08-2.4M1032.95,322.91c-4.68.78-7.55,4.53-11.35-2.31-9.75-17.57-11.73-17.02-25.59-2.65-2.78,2.88-4.43,6.08-6.22,9.54-2.22,4.29-4.4,8.69-8.26,12.23-9.79,8.98-16.72,20.19-21.61,32.45-1.75,4.39-2.69,9.9-4.71,13.52-2.72,4.89-7.49,8.77-5.73,14.9,1.96,6.76-6.09,12.56-3.11,17.31,3.47,5.53-1.33,8.75-.49,12.99,1.05,5.31,2.62,10.56,3.89,15.75,4.2,17.08,12.56,32.11,25.48,44.76,16.04,15.7,36.7,22.63,56.54,30.55,13.1,5.24,32.36-2.6,37.98-14.98,5.24-11.5,11.55-23.24,11.31-36.8-.29-16.7.5-33.43-.23-50.11-.8-18.54,3.6-37.43-3.31-55.6,2.59-18.77-3.58-36.98-3.57-55.6,0-3.8,1.67-7.99-1.33-11.48-7.38.54-13.45-5.91-21.04-3.66-11.6-8.26-20.61-1.89-29.15,4.53,4.06,8.06,2.66,18.01,10.47,24.67M1089.66,241.77c2.86,2.21.62,10.79,8.76,5.45,6.91-4.53,15.44-2.61,23.04-1.24,21.17,3.81,45.04,17.95,57.68,33.25,9.51,11.5,7.07,20.67-6.32,28.74-4.69,2.82-10.04,4.28-14.2,7.37-3.19,2.38-6.23,3.32-9.34,2.5-14.28-3.74-29.42-2.39-43.44-7.81-6.4-2.48-12.35-7.08-21.24-5.48,1.53,15.92-3.98,32.21,3.35,47.97-3.28,3.66-.27,7.4-.41,10.95-.58,15.32,2.86,30.19,3.7,45.28.82,14.94.27,29.96.12,44.96-.04,3.78,1.46,7.98-2.56,11.21-.45.36.41,4.35,0,7.14-.98,6.53-4.02,12.37-4.73,19.09-1.5,14.13-16.73,32.56-28.69,37.79-.97.43-2.25.53-3.29.34-4.36-.82-9.95,3.19-11.6,1.95-3.8-2.84-5.97,1.61-6.25,1.16-3.92-6.11-10.58-2.85-15.62-4.28-14.82-4.19-27.03-13.43-39.76-20.77-12.74-7.35-22.33-20.47-31.18-33.13-5.23-7.48-5.3-16.26-8.33-24.26-8.43-22.26-3.23-44.53,3.11-66.46,9.14-6.03,4.71-18.75,13.41-25.78,7.51-6.08,10.05-16.55,16.91-24.13,6.7-7.41,13.31-15.1,19.88-22.74,3.81-4.44,8.98-6.4,13.47-9.52,4.97-3.45,4.93-10,9.63-13.44,2.65-1.95,5.59-3.49,8.15-5.2,6.33-4.2,13.35-7.64,19.79-11.12,6.36-3.44,12.36-6.65,17.64-11.61,1.83-1.73,5.03-2.96,7.1-3.42,9.28-2.09,15.07-8.66,21.24-14.74"/>
    <path class="cls-1" d="M1472.39,274.76c10.73-8.17,13.55-7.82,21.16,2.72-2.58,5.29-10.61-.82-12.53,5.66-2.86-2.79-5.73-5.57-8.62-8.38"/>
    <path class="cls-1" d="M2453.74,245.47c7.25-.78,8.34-4.66,10.31-8.96,1.53-3.32,9.79-2.91,9.41-7.66-.53-6.52,9.49-2.43,7.32-8.89,8.95-9.5,10.91-22,13.42-33.92.69-3.28,5.02-6.72,2.23-9.74-4.3-4.67.98-6.7,1.53-9.96.94-5.52-.81-10.01-7.05-11.24-7.79,2.49-13.93,7.5-18.31,13.8-3.22,4.64-3.75,11.05-6.38,16.21-4.67,9.13-9.35,17.61-10.29,28.63-.89,10.28-3.89,20.36-2.2,31.73M2127.14,277.73c6.14,4.61,4.62,16.59,13.11,19.01,7.42,2.12,15.92.44,23.85.44,2.13,3.31,1.36,11.12,8.47,5.08,9.69-8.24,20.51-14.97,30.42-22.99,7.33-5.94,16.82-9.24,25.2-13.63,7.06,4.44,10.73,9.53,10.42,18.25-.26,6.9,2.91,13.72,11.64,18.07,1.29-8.22,8.97-11.56,9.62-20.52.45-6.31,8.99-5.08,15.48-4.97,2.95,5.26-1.44,13.18,6.29,17.98,5.01,3.11,10.13,6.36,14.83,9.8,9.91-2,9.6-13.49,16.9-17.5,5.05-.2,6.3,4.63,8.39,5.94,15.79-3.72,24.7-15.58,34.98-25.67,1.49-1.46,3.23-1.29,4.67-.73,1.86.73,2.3,3.7,1.47,4.32-8.79,6.66-6.75,16.04-6.74,24.94.82.82,1.84,1.51,2.43,2.47,2.23,3.62,7.76,1.95,9.62,6.09,2.2-5.84,8.05-2.51,11.92-4.74,14.49-8.34,29.5-15.79,42.93-25.89,1.37-1.03,2.29-3.2,3.72-3.53,12.65-2.83,13.39-12.28,12.4-22.35-1.79-18.17,4.39-34.79,10.79-50.98,4.1-10.38,10.17-20.1,16.33-29.74,5.84-9.15,12.84-14.49,21.88-18.66,5.88-2.72,10.36-.82,13.71,5.36,1.01,1.88,3.45,2.82,3.23,5.62-1.02,12.66,3.11,26.02-5.34,37.64-.63.87-1.63,1.9-1.54,2.77.82,8.41-1.47,14.78-7.88,21.24-5.22,5.26-8.7,11.65-15.86,15.73-6.77,3.87-11.65,11.03-16.07,15.45-7.18,14.42,4.21,24.36,5.43,36.26.32,3.19,4.5,6.28,9.43,5.53,4.06-.62,4.54,2.14,3.79,5.38-17.32,2.19-18.61,1.63-26.05-12.8-3.43-6.65-6.51-13.47-9.96-20.66-10.27,12.2-23.2,20.48-37.26,26.87-10.25,4.66-18.49,12.55-30.08,15.3-19.21,4.54-23.23,3.52-31.5-14.4-.44-.97-.91-1.93-1.58-3.32-3.92,4.01-8.02,6.37-13.96,7.62-8.62,1.81-17.14,5.5-25.13,10.25-10.66,6.33-18.31,4.51-26.98-4.02-3.29-3.23-6.53-6.53-10.76-10.75-3.97,11.69-13.42,15.51-25.07,16.47-11.22-7.24-14.25-20.03-15.17-35.42-11.86,8.48-23.06,14.73-31.85,23.41-5.26,5.19-15.83,5.11-16.09,15.32-6.46.82-11.82,5.85-18.82,4.91-3.51-3.11-.14-8.65-4.67-12-3.91-2.9-7.78-2.02-11.4-1.64-6.01.65-10.49-2.73-15.73-4.29-2.51-3.92.1-8.86-1.95-13.89-13.76,5.28-25.92,12.01-37.19,20.02-5.99,4.25-11.58,7.45-19.06,8.66-8.54,1.39-12.28.61-16.89-6.58-2.52-3.94-2.56-10.13-8.9-11.06-5.69-.71-2.4,5.39-5.39,7.11-2.42,1.38-4.22,3.89-6.19,6-7.77,8.31-17.95,8.75-27.97,7.47-8.6-1.1-12.49-7.16-12.64-16.48-.06-4.04-.03-8.08,0-12.12.04-6.59,2.99-12.75,8.31-15.27,4.87-2.3,8.1-5.76,11.85-8.98,3.98-3.41,7.93-3.71,11.82.16,3.2,3.19,6.4,6.4,9.6,9.6-1.43,1.42-2.65,2.64-4.59,4.59-4.23.15-4.86-6.46-9.72-6.5-3.8-.03-6.38,3.4-8.94,3.29-5.94-.27-4.31,4.57-5.53,6.89-4.66,8.86-3.21,19.08,2.72,24.57,5.4,5.01,12.18,5.01,17.72-.27,7.66-7.3,13.17-16.23,18.79-25.09,1.46-2.29,3.62-4.12,5.05-5.7,5.09-.38,8.62,3.45,8.39,5.51-1.15,10.33,5.85,17.27,9.43,27.06,21.76-8.98,39.82-24.29,63.46-31.26"/>
    <path class="cls-1" d="M2025.01,435.77c-11.1,11.94-22.13,19.81-35.19,25.06-17.47,7.02-35.27,9.7-52.4.95-7.14-3.65-15.57-4.01-21.85-10.38-5.6-5.67-14.52-8.16-19.8-14.01-4.8-5.34-11.44-10.8-10.89-19.54.19-3.02-1.67-5.08-2.65-7.57-4.34-11.05-6.02-22.94-3.99-34.52,1.46-8.23,4.5-17.01,9.43-23.6,6.25-8.35,12.36-16.75,17.6-25.76-8.27-4.9-14.35.04-19.13,5.99-6.66-1.9-8.11-7.41-12.62-9.61q8.97-10.71,41.06-4.69c1.47-9.52,11.4-12.77,15.49-20.88,3.85-7.65,10.72-13.81,10.87-23.21,9.48-4.54,5.32-14.95,9.37-22.13,6.26-11.09,4.16-24.16,3.56-36.43-.23-4.7-1.78-9.85-8.17-12.15-3.93-1.41-6.59-6.23-9.96-9.36-6.07-5.65-7.11-5.65-18.85-.45-.7-9.54-2.43-18.16-11.1-24.2-7.27-5.06-7.88-15.11-12.62-22.45-3.45-5.34-1.31-14.39-1.33-21.79-.02-6.07,6.5-7.3,8.66-12.41,14.01,6.54,16.8,19.44,18.49,31.38,1.15,8.18,6.02,15.82,4,24.46-.64,2.76,1.57,4.36,3.33,5.47,10.29,6.52,19.85,13.89,29.04,21.95,11.11,9.75,15.59,21.79,10.93,35.4-3.68,10.72-6.91,21.56-8.57,32.78-.35,2.32-.19,4.6-2.41,5.94-3.67,2.21-4.33,6.27-6.06,9.63-3.42,6.65-5.18,14.88-10.22,19.76-5.35,5.18-6.92,13.8-15.24,16.34-1.88.57-1.26,4.21.93,5.57,1.28.78,3.46-.6,4.7,1.46-20.58,7.7-30.82,24.54-37.38,43.93-2.23,6.57-5.44,13.07-.87,21.6,4.08,7.6,3.53,17.81,7.52,26.24,4.26,8.98,9.44,16.08,18.67,21.85,10.16,6.35,18.66,14.18,31.21,17.09,17.26,4.02,28.35,4.39,44.61-2.98,8.89-4.04,18.35-6.94,25.19-14.61.77-.86,3.33-.11,6.65-.11"/>
    <path class="cls-1" d="M2380.52,223.88c5.08,2.61,7.38,9.01,17.69,8.23-5.95,2.03-8.76,2.1-9.82,3.5-6.1,8.02-10.85-4.95-16.59-.91-.05.04-1.75-1.5-1.82-2.38-.59-7.99,8.37-3.44,10.53-8.44"/>
    <path class="cls-1" d="M2025.5,429.09c2.16,2.4,2.28,5.81-.52,6.38-3.53.71-.51-3.08-1.45-4.6-.09-.14,1.25-1.14,1.97-1.78"/>
    <path class="cls-1" d="M2349.62,135.57c.46-.46.85-.85,1.23-1.23.39.77.91,1.5,1.08,2.32.06.28-.7.75-1.08,1.14-.41-.75-.82-1.5-1.23-2.23"/>
  </g>
</svg>